<svg id="format_list_bulleted-24px" xmlns="http://www.w3.org/2000/svg" width="45.492" height="45.492" viewBox="0 0 45.492 45.492">
  <path id="Path_12" data-name="Path 12" d="M5.343,15.873a2.843,2.843,0,1,0,2.843,2.843A2.839,2.839,0,0,0,5.343,15.873Zm0-11.373A2.843,2.843,0,1,0,8.186,7.343,2.839,2.839,0,0,0,5.343,4.5Zm0,22.746a2.843,2.843,0,1,0,2.843,2.843A2.852,2.852,0,0,0,5.343,27.246Zm5.686,4.739H37.566V28.194H11.03Zm0-11.373H37.566V16.821H11.03Zm0-15.164V9.239H37.566V5.448Z" transform="translate(2.239 4.03)" fill="#6db5ed"/>
  <path id="Path_13" data-name="Path 13" d="M0,0H45.492V45.492H0Z" fill="none"/>
</svg>
